<svg width="80" height="80" viewBox="0 0 80 80" fill="none" xmlns="http://www.w3.org/2000/svg">
<g id="Material Symbols (1). 1">
<path id="Vector" d="M19.4167 73.3333L23.9167 63.1666C23.1389 62.5555 22.3889 61.9583 21.6667 61.375C20.9444 60.7916 20.25 60.1666 19.5833 59.5C19.1389 59.6666 18.7083 59.7916 18.2917 59.875C17.875 59.9583 17.4167 60 16.9167 60C15.0833 60 13.5139 59.3472 12.2083 58.0416C10.9028 56.7361 10.25 55.1666 10.25 53.3333C10.25 52.2222 10.4861 51.2083 10.9583 50.2916C11.4306 49.375 12.0833 48.6111 12.9167 48C12.4722 46.7222 12.1667 45.4305 12 44.125C11.8333 42.8194 11.75 41.4444 11.75 40C11.75 38.5555 11.8333 37.1805 12 35.875C12.1667 34.5694 12.4722 33.2777 12.9167 32C12.0833 31.3888 11.4306 30.625 10.9583 29.7083C10.4861 28.7916 10.25 27.7777 10.25 26.6666C10.25 24.8333 10.9028 23.2638 12.2083 21.9583C13.5139 20.6527 15.0833 20 16.9167 20C17.4167 20 17.875 20.0416 18.2917 20.125C18.7083 20.2083 19.1389 20.3333 19.5833 20.5C21.4167 18.5 23.5139 16.8333 25.875 15.5C28.2361 14.1666 30.75 13.1666 33.4167 12.5C33.6944 10.8333 34.4583 9.4444 35.7083 8.33329C36.9583 7.22218 38.4167 6.66663 40.0833 6.66663C41.75 6.66663 43.2083 7.23607 44.4583 8.37496C45.7083 9.51385 46.4722 10.8888 46.75 12.5C49.4167 13.1666 51.9306 14.1527 54.2917 15.4583C56.6528 16.7638 58.75 18.3888 60.5833 20.3333C61.0278 20.1666 61.4444 20.0416 61.8333 19.9583C62.2222 19.875 62.6389 19.8333 63.0833 19.8333C64.9167 19.8333 66.4861 20.4861 67.7917 21.7916C69.0972 23.0972 69.75 24.6666 69.75 26.5C69.75 27.6111 69.5278 28.5972 69.0833 29.4583C68.6389 30.3194 68.0278 31.0555 67.25 31.6666C67.6944 33 68 34.3611 68.1667 35.75C68.3333 37.1388 68.4167 38.5555 68.4167 40C68.4167 41.4444 68.3333 42.8472 68.1667 44.2083C68 45.5694 67.6944 46.8888 67.25 48.1666C68.0278 48.7777 68.6389 49.5138 69.0833 50.375C69.5278 51.2361 69.75 52.2222 69.75 53.3333C69.75 55.1666 69.0972 56.7361 67.7917 58.0416C66.4861 59.3472 64.9167 60 63.0833 60C62.6389 60 62.2222 59.9583 61.8333 59.875C61.4444 59.7916 61.0278 59.6666 60.5833 59.5C59.9167 60.1666 59.2361 60.8194 58.5417 61.4583C57.8472 62.0972 57.0833 62.7222 56.25 63.3333L60.5833 73.3333H54.4167L51.25 66C50.4722 66.3333 49.7222 66.625 49 66.875C48.2778 67.125 47.5278 67.3333 46.75 67.5C46.4722 69.1111 45.7083 70.4861 44.4583 71.625C43.2083 72.7638 41.75 73.3333 40.0833 73.3333C38.4167 73.3333 36.9583 72.7777 35.7083 71.6666C34.4583 70.5555 33.6944 69.1666 33.4167 67.5C32.5833 67.3333 31.7917 67.125 31.0417 66.875C30.2917 66.625 29.5278 66.3333 28.75 66L25.5833 73.3333H19.4167ZM25.75 58.8333L30.9167 47.1666C30.1389 46.1666 29.5278 45.0555 29.0833 43.8333C28.6389 42.6111 28.4167 41.3333 28.4167 40C28.4167 36.8333 29.5694 34.0972 31.875 31.7916C34.1806 29.4861 36.9167 28.3333 40.0833 28.3333C43.25 28.3333 45.9861 29.4861 48.2917 31.7916C50.5972 34.0972 51.75 36.8333 51.75 40C51.75 41.3333 51.5139 42.6388 51.0417 43.9166C50.5694 45.1944 49.9167 46.3333 49.0833 47.3333L54.25 58.8333C54.75 58.3888 55.2361 57.9861 55.7083 57.625C56.1806 57.2638 56.6389 56.8333 57.0833 56.3333C56.8056 55.8888 56.625 55.4027 56.5417 54.875C56.4583 54.3472 56.4167 53.8333 56.4167 53.3333C56.4167 51.5555 57.0278 50.0277 58.25 48.75C59.4722 47.4722 60.9722 46.7777 62.75 46.6666C63.0833 45.5555 63.3333 44.4583 63.5 43.375C63.6667 42.2916 63.75 41.1666 63.75 40C63.75 38.8333 63.6667 37.6805 63.5 36.5416C63.3333 35.4027 63.0833 34.2777 62.75 33.1666C60.9722 33.0555 59.4722 32.3611 58.25 31.0833C57.0278 29.8055 56.4167 28.2777 56.4167 26.5C56.4167 26 56.4861 25.5138 56.625 25.0416C56.7639 24.5694 56.9167 24.1111 57.0833 23.6666C55.4722 22.0555 53.6944 20.6944 51.75 19.5833C49.8056 18.4722 47.75 17.6111 45.5833 17C44.9722 17.9444 44.1944 18.6805 43.25 19.2083C42.3056 19.7361 41.25 20 40.0833 20C38.9167 20 37.8611 19.7361 36.9167 19.2083C35.9722 18.6805 35.1944 17.9444 34.5833 17C32.3056 17.6111 30.1944 18.4861 28.25 19.625C26.3056 20.7638 24.5278 22.1666 22.9167 23.8333C23.0833 24.2777 23.2361 24.7361 23.375 25.2083C23.5139 25.6805 23.5833 26.1666 23.5833 26.6666C23.5833 28.4444 23 29.9583 21.8333 31.2083C20.6667 32.4583 19.1944 33.1666 17.4167 33.3333C17.0833 34.4444 16.8333 35.5416 16.6667 36.625C16.5 37.7083 16.4167 38.8333 16.4167 40C16.4167 41.1666 16.5 42.2916 16.6667 43.375C16.8333 44.4583 17.0833 45.5555 17.4167 46.6666C19.1944 46.7777 20.6667 47.4722 21.8333 48.75C23 50.0277 23.5833 51.5555 23.5833 53.3333C23.5833 53.8333 23.5417 54.3194 23.4583 54.7916C23.375 55.2638 23.1944 55.7222 22.9167 56.1666C23.3611 56.6666 23.8194 57.125 24.2917 57.5416C24.7639 57.9583 25.25 58.3888 25.75 58.8333ZM30.75 61.6666C31.3611 61.9444 31.9861 62.1944 32.625 62.4166C33.2639 62.6388 33.9167 62.8333 34.5833 63C35.1944 62.0555 35.9722 61.3194 36.9167 60.7916C37.8611 60.2638 38.9167 60 40.0833 60C41.25 60 42.3056 60.2638 43.25 60.7916C44.1944 61.3194 44.9722 62.0555 45.5833 63C46.25 62.8333 46.875 62.6388 47.4583 62.4166C48.0417 62.1944 48.6389 61.9444 49.25 61.6666L44.4167 50.8333C43.75 51.1111 43.0556 51.3194 42.3333 51.4583C41.6111 51.5972 40.8611 51.6666 40.0833 51.6666C39.25 51.6666 38.4583 51.5833 37.7083 51.4166C36.9583 51.25 36.25 51 35.5833 50.6666L30.75 61.6666ZM40.0833 45C41.4167 45 42.5833 44.5277 43.5833 43.5833C44.5833 42.6388 45.0833 41.4444 45.0833 40C45.0833 38.6666 44.5833 37.5 43.5833 36.5C42.5833 35.5 41.4167 35 40.0833 35C38.6389 35 37.4444 35.5 36.5 36.5C35.5556 37.5 35.0833 38.6666 35.0833 40C35.0833 41.4444 35.5556 42.6388 36.5 43.5833C37.4444 44.5277 38.6389 45 40.0833 45Z" fill="white"/>
</g>
</svg>
