<svg width="36" height="36" viewBox="0 0 36 36" fill="none" xmlns="http://www.w3.org/2000/svg">
<path id="Vector" d="M17.6667 17.6667C15.2375 17.6667 13.158 16.8017 11.4281 15.0719C9.69826 13.342 8.83333 11.2625 8.83333 8.83333C8.83333 6.40417 9.69826 4.32465 11.4281 2.59479C13.158 0.864931 15.2375 0 17.6667 0C20.0958 0 22.1753 0.864931 23.9052 2.59479C25.6351 4.32465 26.5 6.40417 26.5 8.83333C26.5 11.2625 25.6351 13.342 23.9052 15.0719C22.1753 16.8017 20.0958 17.6667 17.6667 17.6667ZM0 35.3333V29.15C0 27.8986 0.322049 26.7484 0.966146 25.6995C1.61024 24.6505 2.46597 23.85 3.53333 23.2979C5.81528 22.1569 8.13403 21.3012 10.4896 20.7307C12.8451 20.1602 15.2375 19.875 17.6667 19.875C20.0958 19.875 22.4882 20.1602 24.8438 20.7307C27.1993 21.3012 29.5181 22.1569 31.8 23.2979C32.8674 23.85 33.7231 24.6505 34.3672 25.6995C35.0113 26.7484 35.3333 27.8986 35.3333 29.15V35.3333H0ZM4.41667 30.9167H30.9167V29.15C30.9167 28.7451 30.8155 28.3771 30.613 28.0458C30.4106 27.7146 30.1437 27.4569 29.8125 27.2729C27.825 26.2792 25.8191 25.5339 23.7948 25.037C21.7705 24.5401 19.7278 24.2917 17.6667 24.2917C15.6056 24.2917 13.5628 24.5401 11.5385 25.037C9.51424 25.5339 7.50833 26.2792 5.52083 27.2729C5.18958 27.4569 4.92274 27.7146 4.72031 28.0458C4.51788 28.3771 4.41667 28.7451 4.41667 29.15V30.9167ZM17.6667 13.25C18.8813 13.25 19.921 12.8175 20.7859 11.9526C21.6509 11.0877 22.0833 10.0479 22.0833 8.83333C22.0833 7.61875 21.6509 6.57899 20.7859 5.71406C19.921 4.84913 18.8813 4.41667 17.6667 4.41667C16.4521 4.41667 15.4123 4.84913 14.5474 5.71406C13.6825 6.57899 13.25 7.61875 13.25 8.83333C13.25 10.0479 13.6825 11.0877 14.5474 11.9526C15.4123 12.8175 16.4521 13.25 17.6667 13.25Z" fill="white"/>
</svg>
